<svg xmlns="http://www.w3.org/2000/svg" xmlns:xlink="http://www.w3.org/1999/xlink" width="500" zoomAndPan="magnify" viewBox="0 0 375 374.999991" height="500" preserveAspectRatio="xMidYMid meet" version="1.0"><defs><g/><clipPath id="f05c66d0c1"><path d="M 79.667969 232.386719 L 129.167969 232.386719 L 129.167969 248.136719 L 79.667969 248.136719 Z M 79.667969 232.386719 " clip-rule="nonzero"/></clipPath><clipPath id="b4aed96908"><path d="M 79.667969 224.511719 L 129.167969 224.511719 L 129.167969 238.628906 L 79.667969 238.628906 Z M 79.667969 224.511719 " clip-rule="nonzero"/></clipPath><clipPath id="67d9a71644"><path d="M 79.667969 125.6875 L 129.167969 125.6875 L 129.167969 141.441406 L 79.667969 141.441406 Z M 79.667969 125.6875 " clip-rule="nonzero"/></clipPath><clipPath id="d0cb595e16"><path d="M 79.667969 135.347656 L 129.167969 135.347656 L 129.167969 148.871094 L 79.667969 148.871094 Z M 79.667969 135.347656 " clip-rule="nonzero"/></clipPath><clipPath id="b95c07305b"><path d="M 84 112.5 L 125 112.5 L 125 129 L 84 129 Z M 84 112.5 " clip-rule="nonzero"/></clipPath></defs><g fill="#3b3a3d" fill-opacity="1"><g transform="translate(140.90897, 163.117154)"><g><path d="M 21.027344 -11.28125 C 21.078125 -13.847656 20.359375 -16.050781 18.820312 -17.796875 C 18 -18.769531 18 -19.179688 18.71875 -20.15625 C 21.847656 -24.308594 20.769531 -31.230469 17.4375 -34.101562 C 15.796875 -35.488281 13.847656 -36.15625 11.4375 -36.105469 C 10.617188 -36.050781 9.539062 -36.050781 8.207031 -36.050781 C 4.308594 -36.105469 3.179688 -36.207031 2.667969 -35.691406 C 2.460938 -35.488281 2.359375 -34.71875 2.359375 -33.488281 L 2.359375 -3.28125 C 2.359375 -1.589844 2.359375 -0.820312 2.71875 -0.410156 C 2.972656 -0.152344 3.382812 0 3.949219 0 C 13.691406 0.101562 16 0.5625 18.976562 -2.972656 C 20.359375 -4.617188 21.027344 -6.410156 20.976562 -8.460938 C 20.976562 -9.640625 20.976562 -10.617188 21.027344 -11.28125 Z M 8.921875 -28.359375 C 9.128906 -29.640625 9.742188 -30.050781 11.078125 -29.949219 C 12.460938 -29.847656 13.332031 -29.078125 13.742188 -27.796875 L 14.050781 -26.257812 C 14.050781 -25.128906 13.796875 -24.050781 13.28125 -23.128906 C 12.976562 -22.617188 12.511719 -22.257812 11.847656 -22.050781 C 8.257812 -20.871094 8.5625 -25.847656 8.921875 -28.359375 Z M 13.691406 -7.742188 C 13.078125 -6.617188 12 -6.101562 10.410156 -6.152344 C 8.617188 -6.257812 8.871094 -7.027344 8.871094 -10.820312 C 8.871094 -14.308594 8.667969 -14.976562 10.050781 -15.691406 C 11.488281 -16.359375 13.488281 -15.179688 14.050781 -13.589844 C 14.820312 -11.539062 14.667969 -9.589844 13.691406 -7.742188 Z M 13.691406 -7.742188 "/></g></g></g><g fill="#3b3a3d" fill-opacity="1"><g transform="translate(163.826689, 163.117154)"><g><path d="M 19.847656 -9.691406 L 19.796875 -26.667969 C 19.796875 -29.386719 19.128906 -32.308594 16.976562 -34.308594 C 14.820312 -36.359375 12.257812 -36.925781 8.207031 -36.308594 C 7.539062 -36.207031 6.972656 -35.949219 6.359375 -35.488281 C 3.382812 -33.335938 1.949219 -30.769531 2.050781 -27.746094 L 2.050781 -8.511719 C 2.050781 -6.871094 2.308594 -5.539062 2.921875 -4.410156 C 6.207031 1.742188 14.71875 2.152344 18.769531 -4.359375 C 19.027344 -4.820312 19.230469 -5.230469 19.28125 -5.691406 C 19.691406 -7.796875 19.847656 -9.128906 19.847656 -9.691406 Z M 13.078125 -7.589844 C 12.152344 -5.539062 9.179688 -5.589844 8.359375 -7.691406 C 8.152344 -8.101562 8.101562 -8.871094 8.101562 -9.898438 L 8.101562 -26.617188 C 8.101562 -27.4375 8.101562 -27.949219 8.152344 -28.257812 C 8.511719 -30.871094 12.308594 -31.179688 13.128906 -28.667969 C 13.28125 -28.15625 13.386719 -27.589844 13.386719 -26.871094 L 13.386719 -9.539062 C 13.386719 -8.71875 13.28125 -8.050781 13.078125 -7.589844 Z M 13.078125 -7.589844 "/></g></g></g><g fill="#3b3a3d" fill-opacity="1"><g transform="translate(185.719005, 163.117154)"><g><path d="M 21.589844 -3.078125 C 21.539062 -3.488281 17.898438 -24.976562 16.460938 -33.488281 C 16.308594 -34.308594 16.101562 -35.230469 15.742188 -35.589844 C 15.539062 -35.746094 15.128906 -35.847656 14.617188 -35.898438 L 9.949219 -35.898438 C 8.308594 -35.898438 7.898438 -35.589844 7.589844 -33.898438 C 7.128906 -31.078125 3.488281 -9.640625 2.257812 -2.667969 C 2.050781 -1.179688 1.691406 -0.101562 3.128906 -0.0507812 C 4.207031 0 5.539062 0 7.128906 -0.0507812 C 7.847656 -0.0507812 8.257812 -0.410156 8.410156 -1.179688 C 8.820312 -3.539062 9.078125 -4.921875 9.128906 -5.332031 C 9.4375 -7.949219 9.847656 -8.050781 12.511719 -8.050781 C 12.511719 -8.050781 12.667969 -8.050781 12.921875 -8 C 14.71875 -7.949219 14.820312 -5.488281 14.871094 -4.972656 C 14.976562 -4.5625 15.027344 -3.949219 15.128906 -3.179688 C 15.332031 -1.539062 15.386719 -0.769531 15.847656 -0.359375 C 16.050781 -0.152344 16.359375 -0.0507812 16.871094 0 C 17.28125 0 20.921875 0.152344 21.386719 -0.308594 C 21.796875 -0.667969 21.847656 -1.589844 21.589844 -3.078125 Z M 13.539062 -14.359375 C 13.4375 -13.691406 10.5625 -13.640625 10.5625 -14.410156 C 10.5625 -14.566406 10.5625 -14.820312 10.617188 -15.078125 C 10.769531 -17.230469 11.078125 -18.820312 11.4375 -19.796875 C 11.640625 -20.15625 12.207031 -20.359375 12.511719 -19.796875 C 12.667969 -19.488281 12.769531 -19.230469 12.820312 -19.027344 C 12.820312 -18.871094 13.386719 -16.152344 13.488281 -15.230469 C 13.539062 -14.769531 13.539062 -14.460938 13.539062 -14.359375 Z M 13.539062 -14.359375 "/></g></g></g><g fill="#3b3a3d" fill-opacity="1"><g transform="translate(140.90897, 218.881288)"><g><path d="M 21.027344 -11.28125 C 21.078125 -13.847656 20.359375 -16.050781 18.820312 -17.796875 C 18 -18.769531 18 -19.179688 18.71875 -20.15625 C 21.847656 -24.308594 20.769531 -31.230469 17.4375 -34.101562 C 15.796875 -35.488281 13.847656 -36.15625 11.4375 -36.105469 C 10.617188 -36.050781 9.539062 -36.050781 8.207031 -36.050781 C 4.308594 -36.105469 3.179688 -36.207031 2.667969 -35.691406 C 2.460938 -35.488281 2.359375 -34.71875 2.359375 -33.488281 L 2.359375 -3.28125 C 2.359375 -1.589844 2.359375 -0.820312 2.71875 -0.410156 C 2.972656 -0.152344 3.382812 0 3.949219 0 C 13.691406 0.101562 16 0.5625 18.976562 -2.972656 C 20.359375 -4.617188 21.027344 -6.410156 20.976562 -8.460938 C 20.976562 -9.640625 20.976562 -10.617188 21.027344 -11.28125 Z M 8.921875 -28.359375 C 9.128906 -29.640625 9.742188 -30.050781 11.078125 -29.949219 C 12.460938 -29.847656 13.332031 -29.078125 13.742188 -27.796875 L 14.050781 -26.257812 C 14.050781 -25.128906 13.796875 -24.050781 13.28125 -23.128906 C 12.976562 -22.617188 12.511719 -22.257812 11.847656 -22.050781 C 8.257812 -20.871094 8.5625 -25.847656 8.921875 -28.359375 Z M 13.691406 -7.742188 C 13.078125 -6.617188 12 -6.101562 10.410156 -6.152344 C 8.617188 -6.257812 8.871094 -7.027344 8.871094 -10.820312 C 8.871094 -14.308594 8.667969 -14.976562 10.050781 -15.691406 C 11.488281 -16.359375 13.488281 -15.179688 14.050781 -13.589844 C 14.820312 -11.539062 14.667969 -9.589844 13.691406 -7.742188 Z M 13.691406 -7.742188 "/></g></g></g><g fill="#3b3a3d" fill-opacity="1"><g transform="translate(163.826689, 218.881288)"><g><path d="M 21.589844 -3.078125 C 21.539062 -3.488281 17.898438 -24.976562 16.460938 -33.488281 C 16.308594 -34.308594 16.101562 -35.230469 15.742188 -35.589844 C 15.539062 -35.746094 15.128906 -35.847656 14.617188 -35.898438 L 9.949219 -35.898438 C 8.308594 -35.898438 7.898438 -35.589844 7.589844 -33.898438 C 7.128906 -31.078125 3.488281 -9.640625 2.257812 -2.667969 C 2.050781 -1.179688 1.691406 -0.101562 3.128906 -0.0507812 C 4.207031 0 5.539062 0 7.128906 -0.0507812 C 7.847656 -0.0507812 8.257812 -0.410156 8.410156 -1.179688 C 8.820312 -3.539062 9.078125 -4.921875 9.128906 -5.332031 C 9.4375 -7.949219 9.847656 -8.050781 12.511719 -8.050781 C 12.511719 -8.050781 12.667969 -8.050781 12.921875 -8 C 14.71875 -7.949219 14.820312 -5.488281 14.871094 -4.972656 C 14.976562 -4.5625 15.027344 -3.949219 15.128906 -3.179688 C 15.332031 -1.539062 15.386719 -0.769531 15.847656 -0.359375 C 16.050781 -0.152344 16.359375 -0.0507812 16.871094 0 C 17.28125 0 20.921875 0.152344 21.386719 -0.308594 C 21.796875 -0.667969 21.847656 -1.589844 21.589844 -3.078125 Z M 13.539062 -14.359375 C 13.4375 -13.691406 10.5625 -13.640625 10.5625 -14.410156 C 10.5625 -14.566406 10.5625 -14.820312 10.617188 -15.078125 C 10.769531 -17.230469 11.078125 -18.820312 11.4375 -19.796875 C 11.640625 -20.15625 12.207031 -20.359375 12.511719 -19.796875 C 12.667969 -19.488281 12.769531 -19.230469 12.820312 -19.027344 C 12.820312 -18.871094 13.386719 -16.152344 13.488281 -15.230469 C 13.539062 -14.769531 13.539062 -14.460938 13.539062 -14.359375 Z M 13.539062 -14.359375 "/></g></g></g><g fill="#3b3a3d" fill-opacity="1"><g transform="translate(187.71853, 218.881288)"><g><path d="M 20.101562 -2.820312 C 18.71875 -8.257812 17.796875 -11.742188 17.332031 -13.386719 C 17.027344 -14.667969 17.179688 -15.742188 17.898438 -16.617188 C 18.871094 -17.847656 19.386719 -19.078125 19.386719 -20.257812 C 19.4375 -24.976562 19.4375 -28 19.386719 -29.386719 C 19.28125 -32.257812 17.230469 -34.667969 14.460938 -35.335938 C 12.820312 -35.796875 11.332031 -36 10.050781 -35.949219 L 7.332031 -35.949219 C 4.359375 -35.949219 2.871094 -36.050781 2.410156 -35.589844 C 2.152344 -35.335938 2.050781 -34.566406 2.050781 -33.28125 L 2.050781 -2.972656 C 2.050781 -1.28125 1.847656 -0.0507812 3.230469 0 C 4.460938 0.0507812 5.691406 0.0507812 6.871094 0 C 8.308594 -0.0507812 8.101562 -1.230469 8.101562 -2.769531 L 8.101562 -10 C 8.152344 -11.589844 8.050781 -12.976562 9.539062 -13.179688 C 11.027344 -13.386719 11.28125 -12.050781 11.488281 -11.078125 L 12.460938 -6.921875 C 12.976562 -4.921875 13.332031 -3.539062 13.488281 -2.769531 C 13.796875 -1.332031 13.949219 -0.152344 15.078125 0 C 16.769531 0.101562 18.308594 0.101562 19.691406 -0.0507812 C 20.257812 -0.101562 20.566406 -0.5625 20.460938 -1.078125 C 20.410156 -1.539062 20.308594 -2.152344 20.101562 -2.820312 Z M 13.691406 -26.871094 L 13.691406 -22.257812 C 13.691406 -22.15625 13.640625 -21.949219 13.589844 -21.640625 C 13.179688 -19.742188 11.386719 -18.617188 9.488281 -19.078125 C 8.617188 -19.332031 8.207031 -19.847656 8.207031 -20.71875 C 8.207031 -20.820312 8.152344 -22.257812 8.152344 -24.511719 C 8.152344 -28.769531 7.589844 -30.15625 10.460938 -29.796875 C 10.667969 -29.746094 10.871094 -29.691406 11.230469 -29.640625 C 12.921875 -29.230469 13.589844 -28.511719 13.691406 -26.871094 Z M 13.691406 -26.871094 "/></g></g></g><g fill="#3b3a3d" fill-opacity="1"><g transform="translate(209.200686, 218.881288)"><g><path d="M 21.027344 -11.28125 C 21.078125 -13.847656 20.359375 -16.050781 18.820312 -17.796875 C 18 -18.769531 18 -19.179688 18.71875 -20.15625 C 21.847656 -24.308594 20.769531 -31.230469 17.4375 -34.101562 C 15.796875 -35.488281 13.847656 -36.15625 11.4375 -36.105469 C 10.617188 -36.050781 9.539062 -36.050781 8.207031 -36.050781 C 4.308594 -36.105469 3.179688 -36.207031 2.667969 -35.691406 C 2.460938 -35.488281 2.359375 -34.71875 2.359375 -33.488281 L 2.359375 -3.28125 C 2.359375 -1.589844 2.359375 -0.820312 2.71875 -0.410156 C 2.972656 -0.152344 3.382812 0 3.949219 0 C 13.691406 0.101562 16 0.5625 18.976562 -2.972656 C 20.359375 -4.617188 21.027344 -6.410156 20.976562 -8.460938 C 20.976562 -9.640625 20.976562 -10.617188 21.027344 -11.28125 Z M 8.921875 -28.359375 C 9.128906 -29.640625 9.742188 -30.050781 11.078125 -29.949219 C 12.460938 -29.847656 13.332031 -29.078125 13.742188 -27.796875 L 14.050781 -26.257812 C 14.050781 -25.128906 13.796875 -24.050781 13.28125 -23.128906 C 12.976562 -22.617188 12.511719 -22.257812 11.847656 -22.050781 C 8.257812 -20.871094 8.5625 -25.847656 8.921875 -28.359375 Z M 13.691406 -7.742188 C 13.078125 -6.617188 12 -6.101562 10.410156 -6.152344 C 8.617188 -6.257812 8.871094 -7.027344 8.871094 -10.820312 C 8.871094 -14.308594 8.667969 -14.976562 10.050781 -15.691406 C 11.488281 -16.359375 13.488281 -15.179688 14.050781 -13.589844 C 14.820312 -11.539062 14.667969 -9.589844 13.691406 -7.742188 Z M 13.691406 -7.742188 "/></g></g></g><g fill="#3b3a3d" fill-opacity="1"><g transform="translate(232.118404, 218.881288)"><g><path d="M 18 -4.972656 C 17.847656 -6.152344 16.820312 -6 15.28125 -6.050781 L 10.257812 -6.050781 C 8.5625 -6.101562 8.101562 -6.617188 8 -8.257812 C 7.949219 -9.847656 7.949219 -11.230469 8.050781 -12.460938 C 8.152344 -14.667969 8.667969 -14.921875 10.617188 -14.921875 C 12.101562 -14.921875 13.28125 -14.921875 14.050781 -14.976562 C 14.769531 -15.027344 15.179688 -15.386719 15.179688 -16.101562 C 15.28125 -17.179688 15.28125 -18.257812 15.230469 -19.332031 C 15.179688 -20.566406 14.871094 -20.921875 13.640625 -20.921875 C 13.28125 -20.976562 12.667969 -20.976562 11.847656 -20.976562 C 10.257812 -20.976562 9.128906 -20.921875 8.511719 -21.488281 C 8.257812 -21.796875 8.050781 -22.308594 8.050781 -22.976562 C 7.949219 -24.617188 7.949219 -26.308594 8 -28.050781 C 8.101562 -29.640625 8.5625 -30.15625 10.257812 -30.207031 L 15.332031 -30.207031 C 16.820312 -30.207031 17.898438 -30.101562 18 -31.335938 C 18.101562 -32.515625 18.15625 -35.078125 17.691406 -35.539062 C 17.4375 -35.746094 16.769531 -35.898438 15.589844 -35.898438 L 4.511719 -35.898438 C 2 -35.898438 1.949219 -35.796875 1.949219 -33.230469 L 1.949219 -3.382812 C 1.949219 -1.488281 1.898438 -0.820312 2.359375 -0.410156 C 2.820312 0 3.691406 0 4.410156 0 L 15.539062 0 C 16.617188 0 17.847656 0.101562 17.949219 -1.128906 C 18.101562 -2.359375 18.101562 -3.640625 18 -4.972656 Z M 18 -4.972656 "/></g></g></g><g fill="#3b3a3d" fill-opacity="1"><g transform="translate(252.421342, 218.881288)"><g><path d="M 21.589844 -3.078125 C 21.539062 -3.488281 17.898438 -24.976562 16.460938 -33.488281 C 16.308594 -34.308594 16.101562 -35.230469 15.742188 -35.589844 C 15.539062 -35.746094 15.128906 -35.847656 14.617188 -35.898438 L 9.949219 -35.898438 C 8.308594 -35.898438 7.898438 -35.589844 7.589844 -33.898438 C 7.128906 -31.078125 3.488281 -9.640625 2.257812 -2.667969 C 2.050781 -1.179688 1.691406 -0.101562 3.128906 -0.0507812 C 4.207031 0 5.539062 0 7.128906 -0.0507812 C 7.847656 -0.0507812 8.257812 -0.410156 8.410156 -1.179688 C 8.820312 -3.539062 9.078125 -4.921875 9.128906 -5.332031 C 9.4375 -7.949219 9.847656 -8.050781 12.511719 -8.050781 C 12.511719 -8.050781 12.667969 -8.050781 12.921875 -8 C 14.71875 -7.949219 14.820312 -5.488281 14.871094 -4.972656 C 14.976562 -4.5625 15.027344 -3.949219 15.128906 -3.179688 C 15.332031 -1.539062 15.386719 -0.769531 15.847656 -0.359375 C 16.050781 -0.152344 16.359375 -0.0507812 16.871094 0 C 17.28125 0 20.921875 0.152344 21.386719 -0.308594 C 21.796875 -0.667969 21.847656 -1.589844 21.589844 -3.078125 Z M 13.539062 -14.359375 C 13.4375 -13.691406 10.5625 -13.640625 10.5625 -14.410156 C 10.5625 -14.566406 10.5625 -14.820312 10.617188 -15.078125 C 10.769531 -17.230469 11.078125 -18.820312 11.4375 -19.796875 C 11.640625 -20.15625 12.207031 -20.359375 12.511719 -19.796875 C 12.667969 -19.488281 12.769531 -19.230469 12.820312 -19.027344 C 12.820312 -18.871094 13.386719 -16.152344 13.488281 -15.230469 C 13.539062 -14.769531 13.539062 -14.460938 13.539062 -14.359375 Z M 13.539062 -14.359375 "/></g></g></g><g fill="#3b3a3d" fill-opacity="1"><g transform="translate(276.313183, 218.881288)"><g><path d="M 20.101562 -2.820312 C 18.71875 -8.257812 17.796875 -11.742188 17.332031 -13.386719 C 17.027344 -14.667969 17.179688 -15.742188 17.898438 -16.617188 C 18.871094 -17.847656 19.386719 -19.078125 19.386719 -20.257812 C 19.4375 -24.976562 19.4375 -28 19.386719 -29.386719 C 19.28125 -32.257812 17.230469 -34.667969 14.460938 -35.335938 C 12.820312 -35.796875 11.332031 -36 10.050781 -35.949219 L 7.332031 -35.949219 C 4.359375 -35.949219 2.871094 -36.050781 2.410156 -35.589844 C 2.152344 -35.335938 2.050781 -34.566406 2.050781 -33.28125 L 2.050781 -2.972656 C 2.050781 -1.28125 1.847656 -0.0507812 3.230469 0 C 4.460938 0.0507812 5.691406 0.0507812 6.871094 0 C 8.308594 -0.0507812 8.101562 -1.230469 8.101562 -2.769531 L 8.101562 -10 C 8.152344 -11.589844 8.050781 -12.976562 9.539062 -13.179688 C 11.027344 -13.386719 11.28125 -12.050781 11.488281 -11.078125 L 12.460938 -6.921875 C 12.976562 -4.921875 13.332031 -3.539062 13.488281 -2.769531 C 13.796875 -1.332031 13.949219 -0.152344 15.078125 0 C 16.769531 0.101562 18.308594 0.101562 19.691406 -0.0507812 C 20.257812 -0.101562 20.566406 -0.5625 20.460938 -1.078125 C 20.410156 -1.539062 20.308594 -2.152344 20.101562 -2.820312 Z M 13.691406 -26.871094 L 13.691406 -22.257812 C 13.691406 -22.15625 13.640625 -21.949219 13.589844 -21.640625 C 13.179688 -19.742188 11.386719 -18.617188 9.488281 -19.078125 C 8.617188 -19.332031 8.207031 -19.847656 8.207031 -20.71875 C 8.207031 -20.820312 8.152344 -22.257812 8.152344 -24.511719 C 8.152344 -28.769531 7.589844 -30.15625 10.460938 -29.796875 C 10.667969 -29.746094 10.871094 -29.691406 11.230469 -29.640625 C 12.921875 -29.230469 13.589844 -28.511719 13.691406 -26.871094 Z M 13.691406 -26.871094 "/></g></g></g><g fill="#3b3a3d" fill-opacity="1"><g transform="translate(297.79534, 218.881288)"><g><path d="M 8.5625 -2.617188 L 8.5625 -32.976562 C 8.5625 -34.71875 8.769531 -35.847656 7.386719 -36 C 6.410156 -36.050781 3.332031 -36.15625 2.820312 -35.640625 C 2.617188 -35.4375 2.511719 -34.667969 2.511719 -33.4375 L 2.511719 -2.871094 C 2.511719 -1.4375 2.359375 -0.152344 3.742188 -0.0507812 C 4.257812 0 4.972656 0 5.949219 0 C 8.460938 0 8.5625 -0.0507812 8.5625 -2.617188 Z M 8.5625 -2.617188 "/></g></g></g><g fill="#3b3a3d" fill-opacity="1"><g transform="translate(308.408247, 218.881288)"><g><path d="M 21.589844 -3.078125 C 21.539062 -3.488281 17.898438 -24.976562 16.460938 -33.488281 C 16.308594 -34.308594 16.101562 -35.230469 15.742188 -35.589844 C 15.539062 -35.746094 15.128906 -35.847656 14.617188 -35.898438 L 9.949219 -35.898438 C 8.308594 -35.898438 7.898438 -35.589844 7.589844 -33.898438 C 7.128906 -31.078125 3.488281 -9.640625 2.257812 -2.667969 C 2.050781 -1.179688 1.691406 -0.101562 3.128906 -0.0507812 C 4.207031 0 5.539062 0 7.128906 -0.0507812 C 7.847656 -0.0507812 8.257812 -0.410156 8.410156 -1.179688 C 8.820312 -3.539062 9.078125 -4.921875 9.128906 -5.332031 C 9.4375 -7.949219 9.847656 -8.050781 12.511719 -8.050781 C 12.511719 -8.050781 12.667969 -8.050781 12.921875 -8 C 14.71875 -7.949219 14.820312 -5.488281 14.871094 -4.972656 C 14.976562 -4.5625 15.027344 -3.949219 15.128906 -3.179688 C 15.332031 -1.539062 15.386719 -0.769531 15.847656 -0.359375 C 16.050781 -0.152344 16.359375 -0.0507812 16.871094 0 C 17.28125 0 20.921875 0.152344 21.386719 -0.308594 C 21.796875 -0.667969 21.847656 -1.589844 21.589844 -3.078125 Z M 13.539062 -14.359375 C 13.4375 -13.691406 10.5625 -13.640625 10.5625 -14.410156 C 10.5625 -14.566406 10.5625 -14.820312 10.617188 -15.078125 C 10.769531 -17.230469 11.078125 -18.820312 11.4375 -19.796875 C 11.640625 -20.15625 12.207031 -20.359375 12.511719 -19.796875 C 12.667969 -19.488281 12.769531 -19.230469 12.820312 -19.027344 C 12.820312 -18.871094 13.386719 -16.152344 13.488281 -15.230469 C 13.539062 -14.769531 13.539062 -14.460938 13.539062 -14.359375 Z M 13.539062 -14.359375 "/></g></g></g><path fill="#3b3a3d" d="M 124.359375 148.75 C 124.464844 147.816406 121.410156 147.128906 120.503906 146.945312 C 108.78125 144.578125 84.019531 145.964844 84.472656 148.75 L 84.472656 226.148438 C 84.660156 229.027344 109.578125 230.222656 120.789062 227.839844 C 122.644531 227.441406 124.3125 226.847656 124.359375 226.148438 L 124.359375 148.75 " fill-opacity="1" fill-rule="nonzero"/><path fill="#3a4976" d="M 84.53125 192.097656 C 84.53125 195.472656 84.53125 198.84375 84.53125 202.21875 C 90.230469 196.410156 96.558594 194.035156 104.355469 192.484375 C 112.152344 190.933594 118.480469 188.554688 124.175781 182.746094 C 124.175781 179.375 124.175781 176 124.175781 172.625 C 118.480469 178.433594 112.152344 180.8125 104.355469 182.363281 C 96.558594 183.914062 90.230469 186.292969 84.53125 192.097656 " fill-opacity="1" fill-rule="nonzero"/><path fill="#3a4976" d="M 124.175781 218.003906 C 124.175781 214.628906 124.175781 211.257812 124.175781 207.882812 C 118.480469 213.691406 112.152344 216.066406 104.355469 217.617188 C 96.78125 219.125 90.597656 221.410156 85.027344 226.859375 C 87.59375 228.378906 96.113281 228.886719 99.089844 229.003906 C 106.070312 226.972656 115.546875 226.796875 124.175781 218.003906 " fill-opacity="1" fill-rule="nonzero"/><path fill="#943843" d="M 84.53125 209.726562 C 84.53125 213.101562 84.53125 216.472656 84.53125 219.847656 C 90.230469 214.039062 96.558594 211.660156 104.355469 210.109375 C 112.152344 208.5625 118.480469 206.179688 124.175781 200.375 C 124.175781 197 124.175781 193.628906 124.175781 190.253906 C 118.480469 196.0625 112.152344 198.441406 104.355469 199.992188 C 96.558594 201.542969 90.230469 203.917969 84.53125 209.726562 " fill-opacity="1" fill-rule="nonzero"/><path fill="#3a4976" d="M 84.53125 156.84375 C 84.53125 160.214844 84.53125 163.589844 84.53125 166.960938 C 90.230469 161.15625 96.558594 158.777344 104.355469 157.226562 C 111.925781 155.722656 118.113281 153.433594 123.679688 147.984375 C 121.117188 146.464844 112.59375 145.960938 109.621094 145.839844 C 102.640625 147.875 93.160156 148.046875 84.53125 156.84375 " fill-opacity="1" fill-rule="nonzero"/><path fill="#9a354a" d="M 124.175781 165.121094 C 124.175781 161.746094 124.175781 158.371094 124.175781 155 C 118.480469 160.804688 112.152344 163.183594 104.355469 164.734375 C 96.558594 166.285156 90.230469 168.664062 84.53125 174.46875 C 84.53125 177.84375 84.53125 181.21875 84.53125 184.589844 C 90.230469 178.785156 96.558594 176.40625 104.355469 174.855469 C 112.152344 173.304688 118.480469 170.925781 124.175781 165.121094 " fill-opacity="1" fill-rule="nonzero"/><path fill="#ffffff" d="M 99.949219 229.035156 C 110.949219 229.402344 122.792969 228.328125 124.175781 226.445312 C 124.175781 223.722656 124.175781 221 124.175781 218.277344 C 115.777344 226.839844 106.484375 227.257812 99.949219 229.035156 " fill-opacity="1" fill-rule="nonzero"/><path fill="#ffffff" d="M 84.53125 202.492188 C 84.53125 204.8125 84.53125 207.132812 84.53125 209.453125 C 90.230469 203.644531 96.558594 201.265625 104.355469 199.714844 C 112.152344 198.167969 118.480469 195.789062 124.175781 189.980469 C 124.175781 187.660156 124.175781 185.339844 124.175781 183.019531 C 118.480469 188.828125 112.152344 191.207031 104.355469 192.757812 C 96.558594 194.308594 90.230469 196.6875 84.53125 202.492188 " fill-opacity="1" fill-rule="nonzero"/><path fill="#ffffff" d="M 124.175781 207.609375 C 124.175781 205.289062 124.175781 202.96875 124.175781 200.648438 C 118.480469 206.457031 112.152344 208.835938 104.355469 210.386719 C 96.558594 211.933594 90.230469 214.3125 84.53125 220.121094 C 84.53125 222.230469 84.59375 224.292969 84.59375 226.402344 C 84.671875 226.503906 84.78125 226.605469 84.921875 226.703125 C 90.535156 221.136719 96.707031 218.863281 104.355469 217.34375 C 112.152344 215.792969 118.480469 213.414062 124.175781 207.609375 " fill-opacity="1" fill-rule="nonzero"/><path fill="#ffffff" d="M 124.175781 165.394531 C 118.480469 171.199219 112.152344 173.578125 104.355469 175.128906 C 96.558594 176.679688 90.230469 179.058594 84.53125 184.863281 C 84.53125 187.183594 84.53125 189.503906 84.53125 191.824219 C 90.230469 186.015625 96.558594 183.640625 104.355469 182.089844 C 112.152344 180.539062 118.480469 178.160156 124.175781 172.351562 C 124.175781 170.03125 124.175781 167.714844 124.175781 165.394531 " fill-opacity="1" fill-rule="nonzero"/><path fill="#ffffff" d="M 84.53125 167.238281 C 84.53125 169.554688 84.53125 171.875 84.53125 174.195312 C 90.230469 168.390625 96.558594 166.011719 104.355469 164.460938 C 112.152344 162.910156 118.480469 160.53125 124.175781 154.722656 C 124.175781 152.613281 124.175781 150.507812 124.175781 148.398438 C 124.101562 148.292969 123.988281 148.191406 123.847656 148.09375 C 118.238281 153.660156 112.003906 155.980469 104.355469 157.5 C 96.558594 159.050781 90.230469 161.429688 84.53125 167.238281 " fill-opacity="1" fill-rule="nonzero"/><path fill="#ffffff" d="M 108.761719 145.808594 C 97.738281 145.441406 85.917969 146.523438 84.53125 148.398438 C 84.53125 151.121094 84.53125 153.84375 84.53125 156.566406 C 92.933594 148.003906 102.226562 147.585938 108.761719 145.808594 " fill-opacity="1" fill-rule="nonzero"/><path fill="#3b3a3d" d="M 104.414062 145.738281 C 92.953125 145.738281 84.207031 147.15625 84.472656 148.75 L 84.472656 226.148438 C 84.664062 229.0625 109.71875 230.199219 120.789062 227.839844 C 122.644531 227.441406 124.3125 226.847656 124.359375 226.148438 L 124.359375 148.75 C 124.46875 147.816406 121.417969 147.132812 120.503906 146.945312 C 116.511719 146.140625 110.464844 145.738281 104.414062 145.738281 Z M 104.414062 146.71875 C 114.113281 146.71875 121.722656 147.746094 123.359375 148.90625 L 123.378906 225.921875 C 123.179688 226.070312 122.507812 226.464844 120.582031 226.878906 C 110.539062 229.015625 88.503906 228.207031 85.453125 225.921875 L 85.496094 148.890625 C 86.164062 148.433594 87.722656 148.070312 88.523438 147.910156 C 92.269531 147.152344 98.058594 146.71875 104.414062 146.71875 " fill-opacity="1" fill-rule="nonzero"/><path fill="#3b3a3d" d="M 119.007812 227.171875 C 119.757812 227.050781 120.554688 226.898438 121.292969 226.714844 L 120.152344 152.15625 L 119.007812 227.171875 " fill-opacity="1" fill-rule="nonzero"/><path fill="#3b3a3d" d="M 116.335938 227.535156 C 117.125 227.449219 117.871094 227.347656 118.566406 227.242188 L 117.457031 173.226562 L 116.335938 227.535156 " fill-opacity="1" fill-rule="nonzero"/><path fill="#3b3a3d" d="M 113.691406 227.789062 C 114.425781 227.730469 115.136719 227.664062 115.820312 227.59375 L 114.746094 190.324219 L 113.691406 227.789062 " fill-opacity="1" fill-rule="nonzero"/><path fill="#3b3a3d" d="M 111.132812 227.957031 C 111.765625 227.921875 112.382812 227.882812 112.984375 227.839844 L 112.0625 209.453125 L 111.132812 227.957031 " fill-opacity="1" fill-rule="nonzero"/><path fill="#ffffff" d="M 90.351562 183.605469 L 91.140625 147.476562 C 90.589844 147.550781 90.066406 147.632812 89.570312 147.714844 L 90.351562 183.605469 " fill-opacity="1" fill-rule="nonzero"/><path fill="#ffffff" d="M 95.632812 225.011719 C 96.859375 204.773438 96.65625 169.191406 95.632812 152.15625 C 94.476562 171.4375 94.527344 206.6875 95.632812 225.011719 " fill-opacity="1" fill-rule="nonzero"/><path fill="#ffffff" d="M 90.351562 213.082031 C 91.507812 208.589844 91.464844 198.171875 90.351562 193.820312 C 89.253906 198.128906 89.183594 208.53125 90.351562 213.082031 " fill-opacity="1" fill-rule="nonzero"/><path fill="#ffffff" d="M 99.949219 187.421875 C 101.082031 179.0625 101.097656 163.527344 99.949219 155 C 98.792969 163.566406 98.8125 179.066406 99.949219 187.421875 " fill-opacity="1" fill-rule="nonzero"/><path fill="#ffffff" d="M 104.417969 237.328125 C 91.355469 237.324219 80.769531 235.664062 80.769531 233.617188 C 80.769531 235.347656 80.769531 242.394531 80.769531 243.300781 C 80.769531 245.347656 91.355469 247.007812 104.417969 247.007812 C 117.476562 247.007812 128.0625 245.347656 128.0625 243.300781 C 128.0625 242.394531 128.0625 235.347656 128.0625 233.617188 C 128.0625 235.664062 117.476562 237.324219 104.417969 237.328125 " fill-opacity="1" fill-rule="nonzero"/><g clip-path="url(#f05c66d0c1)"><path fill="#3b3a3d" d="M 81.875 243.128906 C 82.140625 243.355469 83.472656 244.21875 88.796875 244.96875 C 102.828125 246.941406 124.105469 245.539062 126.957031 243.128906 L 126.957031 235.957031 C 120.59375 238.621094 102.621094 238.433594 104.417969 238.433594 C 98.578125 238.433594 86.671875 237.964844 81.875 235.957031 Z M 87.523438 247.011719 C 82.015625 246.148438 79.667969 245.039062 79.667969 243.300781 L 79.667969 233.617188 C 79.667969 233.007812 80.160156 232.511719 80.769531 232.511719 C 81.320312 232.511719 81.773438 232.910156 81.863281 233.433594 C 82.089844 233.636719 83.363281 234.523438 88.796875 235.285156 C 102.808594 237.257812 124.238281 235.859375 126.96875 233.433594 C 127.058594 232.910156 127.511719 232.511719 128.0625 232.511719 C 128.671875 232.511719 129.164062 233.007812 129.164062 233.617188 L 129.164062 243.300781 C 129.164062 245.039062 126.816406 246.148438 121.308594 247.011719 C 112.019531 248.46875 96.949219 248.492188 87.523438 247.011719 " fill-opacity="1" fill-rule="nonzero"/></g><path fill="#3b3a3d" d="M 128.675781 235.339844 L 127.449219 235.339844 C 127.464844 235.417969 127.203125 235.632812 127.140625 235.679688 C 123.753906 238.191406 108.808594 238.921875 104.417969 239.050781 C 109.746094 239.164062 121.933594 239.113281 126.859375 237.125 C 125.457031 237.9375 122.601562 238.53125 121.015625 238.820312 C 115.753906 239.777344 109.707031 240.160156 104.417969 240.3125 C 109.753906 240.425781 121.953125 240.367188 126.859375 238.390625 C 122.847656 240.71875 109.207031 241.4375 104.417969 241.578125 C 109.738281 241.691406 121.933594 241.640625 126.859375 239.652344 C 122.804688 242.003906 109.195312 242.703125 104.417969 242.839844 C 109.738281 242.953125 121.933594 242.902344 126.859375 240.917969 C 122.777344 243.285156 109.128906 243.96875 104.417969 244.105469 C 109.734375 244.21875 121.929688 244.167969 126.859375 242.179688 C 122.777344 244.546875 109.136719 245.230469 104.417969 245.367188 C 108.238281 245.449219 126.988281 245.605469 128.554688 242.171875 C 128.621094 242.03125 128.636719 236.5625 128.675781 235.339844 " fill-opacity="1" fill-rule="nonzero"/><path fill="#3b3a3d" d="M 84.089844 245.195312 C 86.289062 254.382812 94.554688 261.214844 104.417969 261.214844 C 114.277344 261.214844 122.542969 254.382812 124.742188 245.195312 C 115.558594 247.613281 93.261719 247.609375 84.089844 245.195312 " fill-opacity="1" fill-rule="nonzero"/><path fill="#ffffff" d="M 94.667969 256.472656 C 98.085938 258.070312 101.484375 258.953125 105.5625 258.628906 C 112.023438 258.089844 116.898438 255.050781 120.6875 250.054688 C 115.703125 259.628906 103.226562 262.390625 94.667969 256.472656 " fill-opacity="1" fill-rule="nonzero"/><path fill="#ffffff" d="M 125.386719 231.726562 C 125.402344 231.636719 125.398438 231.757812 125.398438 229.894531 C 125.398438 229.53125 125.101562 229.140625 124.546875 228.75 C 124.558594 228.625 124.625 225.792969 124.546875 225.667969 C 124.667969 228.625 99.445312 229.753906 88.140625 227.46875 C 87.15625 227.269531 84.246094 226.660156 84.285156 225.667969 C 84.207031 225.792969 84.273438 228.625 84.285156 228.75 C 83.730469 229.140625 83.433594 229.53125 83.433594 229.894531 C 83.433594 231.757812 83.429688 231.636719 83.445312 231.726562 C 81.738281 232.238281 80.769531 232.820312 80.769531 233.4375 C 80.769531 233.503906 80.769531 233.605469 80.769531 233.730469 C 80.769531 235.78125 91.355469 237.441406 104.417969 237.441406 C 117.476562 237.441406 128.0625 235.78125 128.0625 233.730469 C 128.0625 233.605469 128.0625 233.503906 128.0625 233.4375 C 128.0625 232.820312 127.09375 232.238281 125.386719 231.726562 " fill-opacity="1" fill-rule="nonzero"/><g clip-path="url(#b4aed96908)"><path fill="#3b3a3d" d="M 125.386719 231.726562 L 124.296875 231.554688 C 124.296875 231.554688 125.378906 231.726562 125.386719 231.726562 Z M 81.90625 233.585938 C 82.230469 233.839844 83.636719 234.675781 88.796875 235.398438 C 102.6875 237.351562 123.851562 236.011719 126.925781 233.585938 C 126.753906 233.449219 126.273438 233.144531 125.070312 232.785156 C 124.550781 232.628906 124.226562 232.121094 124.292969 231.585938 L 124.292969 229.992188 C 124.25 229.9375 124.144531 229.820312 123.90625 229.648438 C 123.347656 229.25 123.445312 228.746094 123.460938 227.875 C 116.40625 230.4375 92.328125 230.402344 85.371094 227.875 C 85.375 228.140625 85.382812 228.492188 85.386719 228.644531 C 85.460938 229.460938 84.785156 229.664062 84.539062 229.992188 L 84.539062 231.589844 C 84.605469 232.121094 84.277344 232.628906 83.761719 232.785156 C 82.558594 233.144531 82.078125 233.449219 81.90625 233.585938 Z M 87.523438 237.445312 C 82.015625 236.582031 79.667969 235.472656 79.667969 233.730469 C 79.667969 232.945312 79.679688 231.875 82.328125 230.925781 C 82.328125 229.804688 82.183594 229.144531 83.167969 228.234375 C 83.113281 225.597656 83.128906 225.445312 83.335938 225.097656 C 83.855469 224.234375 85.164062 224.460938 85.367188 225.441406 C 86.816406 226.421875 93.859375 227.589844 104.414062 227.574219 C 114.613281 227.585938 121.914062 226.492188 123.464844 225.441406 C 123.667969 224.457031 124.980469 224.238281 125.496094 225.097656 C 125.703125 225.445312 125.71875 225.597656 125.664062 228.234375 C 126.644531 229.140625 126.503906 229.792969 126.503906 230.925781 C 129.019531 231.828125 129.164062 232.820312 129.164062 233.730469 C 129.164062 235.472656 126.816406 236.582031 121.308594 237.445312 C 111.992188 238.90625 96.925781 238.921875 87.523438 237.445312 " fill-opacity="1" fill-rule="nonzero"/></g><path fill="#3b3a3d" d="M 125.386719 231.128906 C 125.285156 231.710938 124.625 232.15625 124.101562 232.433594 C 115.367188 237.152344 84.5625 235.492188 83.820312 231.128906 C 85.164062 235.195312 124.117188 234.964844 125.386719 231.128906 " fill-opacity="1" fill-rule="nonzero"/><path fill="#3b3a3d" d="M 124.449219 228.390625 C 124.167969 228.90625 123.640625 229.257812 123.105469 229.53125 C 114.832031 233.917969 87.128906 232.730469 84.757812 228.390625 C 87.546875 231.996094 112.21875 231.066406 117.808594 230.398438 C 119.390625 230.207031 123.472656 229.652344 124.449219 228.390625 " fill-opacity="1" fill-rule="nonzero"/><path fill="#3b3a3d" d="M 104.417969 231.203125 C 99.949219 231.453125 90.683594 231.710938 86.441406 230.371094 C 84.554688 229.777344 84.382812 229.15625 84.144531 228.714844 L 84.839844 228.890625 C 84.648438 229.023438 84.464844 229.164062 84.328125 229.316406 C 84.039062 229.617188 84.117188 229.527344 84.109375 231.410156 C 84.109375 231.421875 84.109375 231.449219 84.109375 231.4375 C 84.109375 231.449219 84.109375 231.445312 84.113281 231.46875 C 84.109375 231.464844 84.117188 231.488281 84.109375 231.457031 C 84.121094 231.511719 84.121094 231.5 84.121094 231.5 C 84.847656 233.628906 102.136719 234.3125 104.417969 234.441406 C 99.582031 234.722656 84.847656 234.914062 83.285156 232.007812 C 83.113281 231.691406 83.132812 231.457031 83.132812 231.214844 C 83.125 229.109375 82.914062 229.03125 84.753906 227.785156 C 85.164062 228.59375 85.136719 228.578125 85.257812 228.710938 C 87.066406 230.734375 100.855469 230.996094 104.417969 231.203125 " fill-opacity="1" fill-rule="nonzero"/><path fill="#ffffff" d="M 104.417969 136.5 C 91.355469 136.5 80.769531 138.160156 80.769531 140.207031 C 80.769531 138.476562 80.769531 131.429688 80.769531 130.527344 C 80.769531 128.480469 91.355469 126.816406 104.417969 126.816406 C 117.476562 126.816406 128.0625 128.480469 128.0625 130.527344 C 128.0625 131.429688 128.0625 138.476562 128.0625 140.207031 C 128.0625 138.160156 117.476562 136.5 104.417969 136.5 " fill-opacity="1" fill-rule="nonzero"/><g clip-path="url(#67d9a71644)"><path fill="#3b3a3d" d="M 81.875 130.695312 L 81.875 137.867188 C 89.261719 134.777344 118.578125 134.363281 126.957031 137.867188 L 126.957031 130.695312 C 126.691406 130.472656 125.359375 129.605469 120.035156 128.859375 C 106.019531 126.886719 84.730469 128.28125 81.875 130.695312 Z M 128.0625 141.3125 C 127.511719 141.3125 127.058594 140.914062 126.96875 140.390625 C 126.742188 140.1875 125.46875 139.304688 120.035156 138.539062 C 106.039062 136.570312 84.59375 137.964844 81.863281 140.390625 C 81.773438 140.914062 81.320312 141.3125 80.769531 141.3125 C 80.160156 141.3125 79.667969 140.820312 79.667969 140.207031 L 79.667969 130.527344 C 79.667969 128.789062 82.015625 127.675781 87.523438 126.8125 C 96.839844 125.351562 111.90625 125.335938 121.308594 126.8125 C 126.816406 127.675781 129.164062 128.789062 129.164062 130.527344 L 129.164062 140.207031 C 129.164062 140.820312 128.671875 141.3125 128.0625 141.3125 " fill-opacity="1" fill-rule="nonzero"/></g><path fill="#3b3a3d" d="M 128.675781 132.167969 C 128.554688 128.179688 108.410156 128.371094 104.417969 128.457031 C 108.386719 128.574219 112.398438 128.789062 116.59375 129.296875 C 118.820312 129.5625 124.804688 130.386719 126.90625 131.671875 C 121.890625 129.507812 107.710938 129.652344 104.417969 129.722656 C 108.386719 129.835938 112.398438 130.054688 116.59375 130.558594 C 118.820312 130.828125 124.808594 131.648438 126.910156 132.9375 C 121.894531 130.769531 107.699219 130.914062 104.417969 130.984375 C 108.386719 131.101562 112.398438 131.316406 116.59375 131.824219 C 118.820312 132.089844 124.808594 132.914062 126.910156 134.203125 C 121.894531 132.035156 107.699219 132.179688 104.417969 132.25 C 108.386719 132.363281 112.398438 132.582031 116.59375 133.085938 C 118.820312 133.355469 124.808594 134.175781 126.910156 135.464844 C 121.894531 133.300781 107.699219 133.441406 104.417969 133.511719 C 108.386719 133.628906 112.398438 133.84375 116.59375 134.351562 C 118.820312 134.617188 124.8125 135.441406 126.910156 136.730469 C 121.898438 134.566406 107.730469 134.707031 104.417969 134.777344 C 108.375 134.890625 112.390625 135.109375 116.59375 135.613281 C 118.90625 135.894531 125.285156 136.769531 127.140625 138.144531 C 127.203125 138.191406 127.464844 138.410156 127.449219 138.484375 L 128.675781 138.484375 C 128.660156 138.007812 128.675781 132.167969 128.675781 132.167969 " fill-opacity="1" fill-rule="nonzero"/><g clip-path="url(#d0cb595e16)"><path fill="#3b3a3d" d="M 121.308594 136.519531 C 111.988281 135.058594 96.921875 135.046875 87.523438 136.519531 C 82.015625 137.386719 79.667969 138.496094 79.667969 140.234375 L 79.667969 140.527344 C 79.667969 142.246094 81.980469 142.972656 83.621094 143.445312 C 83.621094 144.28125 83.476562 144.648438 84.570312 145.390625 C 84.503906 145.515625 84.46875 145.644531 84.46875 145.769531 C 84.46875 146.15625 84.390625 148.648438 84.472656 148.785156 C 84.394531 145.832031 109.757812 144.675781 120.789062 147.042969 C 121.742188 147.246094 124.398438 147.835938 124.359375 148.785156 C 124.441406 148.648438 124.363281 146.15625 124.363281 145.769531 C 124.363281 145.644531 124.328125 145.515625 124.261719 145.390625 C 125.355469 144.652344 125.210938 144.285156 125.210938 143.445312 C 126.734375 143.003906 129.164062 142.285156 129.164062 140.527344 L 129.164062 140.234375 C 129.164062 138.496094 126.816406 137.386719 121.308594 136.519531 " fill-opacity="1" fill-rule="nonzero"/></g><path fill="#ffffff" d="M 80.769531 140.488281 C 80.769531 140.488281 80.625 139.832031 82.261719 139.113281 C 87.703125 136.683594 104.707031 135.65625 117.527344 137.152344 C 128.59375 138.421875 128.0625 140.488281 128.0625 140.488281 C 128.0625 140.488281 128.933594 137.839844 108.964844 137.242188 C 100.09375 137 81.496094 137.5625 80.792969 140.347656 C 80.769531 140.4375 80.773438 140.488281 80.769531 140.488281 " fill-opacity="1" fill-rule="nonzero"/><path fill="#ffffff" d="M 125.199219 142.550781 C 123.890625 138.378906 84.914062 138.464844 83.632812 142.550781 C 83.742188 141.96875 84.402344 141.539062 84.925781 141.265625 C 93.632812 136.679688 124.398438 138.246094 125.199219 142.550781 " fill-opacity="1" fill-rule="nonzero"/><path fill="#ffffff" d="M 124.261719 145.285156 C 121.617188 141.75 87.503906 141.367188 84.570312 145.285156 C 86.226562 142.363281 99.035156 141.550781 102.492188 141.488281 C 116.355469 141.324219 123.457031 143.660156 124.203125 145.183594 C 124.242188 145.25 124.261719 145.285156 124.261719 145.285156 " fill-opacity="1" fill-rule="nonzero"/><g clip-path="url(#b95c07305b)"><path fill="#3b3a3d" d="M 84.089844 128.632812 C 86.289062 119.441406 94.554688 112.609375 104.417969 112.609375 C 114.277344 112.609375 122.542969 119.441406 124.742188 128.632812 C 115.558594 126.214844 93.261719 126.214844 84.089844 128.632812 " fill-opacity="1" fill-rule="nonzero"/></g><path fill="#ffffff" d="M 96.589844 121.574219 C 95.167969 122.710938 91.945312 123.765625 90.933594 122.910156 C 89.921875 122.054688 91.503906 119.609375 92.925781 118.476562 C 94.492188 117.230469 97.835938 116.246094 98.847656 117.101562 C 99.859375 117.957031 98.191406 120.296875 96.589844 121.574219 " fill-opacity="1" fill-rule="nonzero"/><path fill="#ffffff" d="M 102.496094 116.132812 C 102.496094 116.8125 101.949219 117.363281 101.269531 117.363281 C 100.589844 117.363281 100.042969 116.8125 100.042969 116.132812 C 100.042969 115.457031 100.589844 114.90625 101.269531 114.90625 C 101.949219 114.90625 102.496094 115.457031 102.496094 116.132812 " fill-opacity="1" fill-rule="nonzero"/><path fill="#ffffff" d="M 121.449219 126.835938 C 119.09375 121.691406 115.371094 118.371094 110.371094 116.132812 C 114.464844 118.292969 116.945312 120.5625 119.511719 124.945312 C 119.839844 125.59375 120.101562 126.128906 120.332031 126.667969 C 120.863281 126.742188 121.160156 126.789062 121.449219 126.835938 " fill-opacity="1" fill-rule="nonzero"/><g fill="#3b3a3d" fill-opacity="1"><g transform="translate(143.843916, 251.813802)"><g><path d="M 1.59375 -14.890625 L 7.5625 -14.890625 C 8.550781 -14.890625 9.359375 -14.695312 9.984375 -14.3125 C 10.617188 -13.9375 11.070312 -13.460938 11.34375 -12.890625 C 11.613281 -12.316406 11.75 -11.722656 11.75 -11.109375 C 11.75 -10.472656 11.613281 -9.921875 11.34375 -9.453125 C 11.070312 -8.984375 10.742188 -8.617188 10.359375 -8.359375 C 9.984375 -8.109375 9.625 -7.945312 9.28125 -7.875 L 9.28125 -7.75 C 9.644531 -7.71875 10.070312 -7.582031 10.5625 -7.34375 C 11.050781 -7.113281 11.484375 -6.738281 11.859375 -6.21875 C 12.234375 -5.707031 12.421875 -5.050781 12.421875 -4.25 C 12.421875 -3.539062 12.257812 -2.863281 11.9375 -2.21875 C 11.625 -1.570312 11.125 -1.039062 10.4375 -0.625 C 9.757812 -0.207031 8.910156 0 7.890625 0 L 1.59375 0 Z M 7.015625 -8.359375 C 7.828125 -8.359375 8.523438 -8.566406 9.109375 -8.984375 C 9.691406 -9.410156 9.984375 -10.0625 9.984375 -10.9375 C 9.984375 -11.769531 9.703125 -12.378906 9.140625 -12.765625 C 8.578125 -13.148438 7.867188 -13.34375 7.015625 -13.34375 L 3.390625 -13.34375 L 3.390625 -8.359375 Z M 7.421875 -1.546875 C 8.347656 -1.546875 9.113281 -1.757812 9.71875 -2.1875 C 10.332031 -2.613281 10.640625 -3.3125 10.640625 -4.28125 C 10.640625 -5.226562 10.332031 -5.90625 9.71875 -6.3125 C 9.113281 -6.71875 8.347656 -6.921875 7.421875 -6.921875 L 3.390625 -6.921875 L 3.390625 -1.546875 Z M 7.421875 -1.546875 "/></g></g></g><g fill="#3b3a3d" fill-opacity="1"><g transform="translate(157.121641, 251.813802)"><g><path d="M 10.28125 -4.34375 L 4.21875 -4.34375 L 2.640625 0 L 0.765625 0 L 6.359375 -14.890625 L 8.109375 -14.890625 L 13.75 0 L 11.875 0 Z M 9.75 -5.8125 L 7.25 -12.5625 L 7.171875 -12.5625 L 4.75 -5.8125 Z M 9.75 -5.8125 "/></g></g></g><g fill="#3b3a3d" fill-opacity="1"><g transform="translate(171.590945, 251.813802)"><g><path d="M 6.09375 -5.9375 L 3.421875 -5.9375 L 3.421875 0 L 1.59375 0 L 1.59375 -14.890625 L 6.65625 -14.890625 C 7.863281 -14.890625 8.851562 -14.671875 9.625 -14.234375 C 10.40625 -13.796875 10.960938 -13.234375 11.296875 -12.546875 C 11.640625 -11.867188 11.8125 -11.15625 11.8125 -10.40625 C 11.8125 -9.375 11.5 -8.445312 10.875 -7.625 C 10.257812 -6.800781 9.300781 -6.273438 8 -6.046875 L 11.9375 0 L 9.921875 0 Z M 3.421875 -7.515625 L 6.421875 -7.515625 C 7.429688 -7.515625 8.285156 -7.734375 8.984375 -8.171875 C 9.679688 -8.609375 10.03125 -9.351562 10.03125 -10.40625 C 10.03125 -11.4375 9.679688 -12.164062 8.984375 -12.59375 C 8.285156 -13.019531 7.429688 -13.234375 6.421875 -13.234375 L 3.421875 -13.234375 Z M 3.421875 -7.515625 "/></g></g></g><g fill="#3b3a3d" fill-opacity="1"><g transform="translate(184.464376, 251.813802)"><g><path d="M 1.59375 -14.890625 L 7.5625 -14.890625 C 8.550781 -14.890625 9.359375 -14.695312 9.984375 -14.3125 C 10.617188 -13.9375 11.070312 -13.460938 11.34375 -12.890625 C 11.613281 -12.316406 11.75 -11.722656 11.75 -11.109375 C 11.75 -10.472656 11.613281 -9.921875 11.34375 -9.453125 C 11.070312 -8.984375 10.742188 -8.617188 10.359375 -8.359375 C 9.984375 -8.109375 9.625 -7.945312 9.28125 -7.875 L 9.28125 -7.75 C 9.644531 -7.71875 10.070312 -7.582031 10.5625 -7.34375 C 11.050781 -7.113281 11.484375 -6.738281 11.859375 -6.21875 C 12.234375 -5.707031 12.421875 -5.050781 12.421875 -4.25 C 12.421875 -3.539062 12.257812 -2.863281 11.9375 -2.21875 C 11.625 -1.570312 11.125 -1.039062 10.4375 -0.625 C 9.757812 -0.207031 8.910156 0 7.890625 0 L 1.59375 0 Z M 7.015625 -8.359375 C 7.828125 -8.359375 8.523438 -8.566406 9.109375 -8.984375 C 9.691406 -9.410156 9.984375 -10.0625 9.984375 -10.9375 C 9.984375 -11.769531 9.703125 -12.378906 9.140625 -12.765625 C 8.578125 -13.148438 7.867188 -13.34375 7.015625 -13.34375 L 3.390625 -13.34375 L 3.390625 -8.359375 Z M 7.421875 -1.546875 C 8.347656 -1.546875 9.113281 -1.757812 9.71875 -2.1875 C 10.332031 -2.613281 10.640625 -3.3125 10.640625 -4.28125 C 10.640625 -5.226562 10.332031 -5.90625 9.71875 -6.3125 C 9.113281 -6.71875 8.347656 -6.921875 7.421875 -6.921875 L 3.390625 -6.921875 L 3.390625 -1.546875 Z M 7.421875 -1.546875 "/></g></g></g><g fill="#3b3a3d" fill-opacity="1"><g transform="translate(197.742102, 251.813802)"><g><path d="M 3.453125 -13.234375 L 3.453125 -8.34375 L 9.890625 -8.34375 L 9.890625 -6.859375 L 3.453125 -6.859375 L 3.453125 -1.65625 L 10.765625 -1.65625 L 10.765625 0 L 1.59375 0 L 1.59375 -14.890625 L 10.765625 -14.890625 L 10.765625 -13.234375 Z M 3.453125 -13.234375 "/></g></g></g><g fill="#3b3a3d" fill-opacity="1"><g transform="translate(209.849505, 251.813802)"><g><path d="M 10.28125 -4.34375 L 4.21875 -4.34375 L 2.640625 0 L 0.765625 0 L 6.359375 -14.890625 L 8.109375 -14.890625 L 13.75 0 L 11.875 0 Z M 9.75 -5.8125 L 7.25 -12.5625 L 7.171875 -12.5625 L 4.75 -5.8125 Z M 9.75 -5.8125 "/></g></g></g><g fill="#3b3a3d" fill-opacity="1"><g transform="translate(224.318809, 251.813802)"><g><path d="M 6.09375 -5.9375 L 3.421875 -5.9375 L 3.421875 0 L 1.59375 0 L 1.59375 -14.890625 L 6.65625 -14.890625 C 7.863281 -14.890625 8.851562 -14.671875 9.625 -14.234375 C 10.40625 -13.796875 10.960938 -13.234375 11.296875 -12.546875 C 11.640625 -11.867188 11.8125 -11.15625 11.8125 -10.40625 C 11.8125 -9.375 11.5 -8.445312 10.875 -7.625 C 10.257812 -6.800781 9.300781 -6.273438 8 -6.046875 L 11.9375 0 L 9.921875 0 Z M 3.421875 -7.515625 L 6.421875 -7.515625 C 7.429688 -7.515625 8.285156 -7.734375 8.984375 -8.171875 C 9.679688 -8.609375 10.03125 -9.351562 10.03125 -10.40625 C 10.03125 -11.4375 9.679688 -12.164062 8.984375 -12.59375 C 8.285156 -13.019531 7.429688 -13.234375 6.421875 -13.234375 L 3.421875 -13.234375 Z M 3.421875 -7.515625 "/></g></g></g><g fill="#3b3a3d" fill-opacity="1"><g transform="translate(237.192241, 251.813802)"><g><path d="M 1.65625 -14.890625 L 3.515625 -14.890625 L 3.515625 0 L 1.65625 0 Z M 1.65625 -14.890625 "/></g></g></g><g fill="#3b3a3d" fill-opacity="1"><g transform="translate(242.362894, 251.813802)"><g><path d="M 10.28125 -4.34375 L 4.21875 -4.34375 L 2.640625 0 L 0.765625 0 L 6.359375 -14.890625 L 8.109375 -14.890625 L 13.75 0 L 11.875 0 Z M 9.75 -5.8125 L 7.25 -12.5625 L 7.171875 -12.5625 L 4.75 -5.8125 Z M 9.75 -5.8125 "/></g></g></g></svg>